# xmcd CD database file
#
# Track frame offsets:
#	150
#	12426
#	21879
#	32519
#	45161
#	55529
#	68916
#	77473
#	89990
#	104646
#	113237
#	127983
#	141524
#	156092
#
# Disc length: 2229 seconds
#
# Revision: 0
# Processed by: cddbd v1.5.2PL0 Copyright (c) Steve Scherf et al.
# Submitted via: CDex 1.51
#
DISCID=b408b30e
DTITLE=Dolly Parton - Jolene
DYEAR=1974
DGENRE=Country
TTITLE0=Jolene
TTITLE1=When Someone Wants To Leave
TTITLE2=River Of Happiness
TTITLE3=Early Morning Breeze
TTITLE4=Highlight Of My Life
TTITLE5=I Will Always Love You
TTITLE6=Randy
TTITLE7=Living On Memories Of You
TTITLE8=Lonely Comin' Down
TTITLE9=It Must Be You
TTITLE10=Cracker Jack  (Previously Unreleased Recording June 1973)
TTITLE11=Another Woman's Man  (Previously Unreleased Recording June 1973)
TTITLE12=Barbara On Your Mind  (Previously Unreleased Recording June 1973)
TTITLE13=Last Night's Lovin' (Previously Unreleased Recording June 1973)
EXTD=YEAR: 1974
EXTT0=
EXTT1=
EXTT2=
EXTT3=
EXTT4=
EXTT5=
EXTT6=
EXTT7=
EXTT8=
EXTT9=
EXTT10=
EXTT11=
EXTT12=
EXTT13=
PLAYORDER=
